<svg xmlns="http://www.w3.org/2000/svg" viewBox="0 0 800 800">
  <!-- Default Button -->
  <g id="button">
    <rect id="normal" x="0" y="0" width="100" height="100" rx="3" fill="#2c313a"/>
    <rect id="focused" x="110" y="0" width="100" height="100" rx="3" fill="#3B4048"/>
    <rect id="pressed" x="220" y="0" width="100" height="100" rx="3" fill="#528BFF"/>
    <rect id="disabled" x="330" y="0" width="100" height="100" rx="3" fill="#21252B"/>
  </g>

  <!-- Menu Items -->
  <g id="menuitem" transform="translate(0,110)">
    <rect id="normal" x="0" y="0" width="100" height="30" fill="#282c34"/>
    <rect id="focused" x="110" y="0" width="100" height="30" fill="#528BFF"/>
    <rect id="disabled" x="220" y="0" width="100" height="30" fill="#21252B"/>
  </g>

  <!-- Scrollbar -->
  <g id="scrollbarslider" transform="translate(0,150)">
    <rect id="normal" x="0" y="0" width="20" height="100" rx="10" fill="#3B4048"/>
    <rect id="focused" x="30" y="0" width="20" height="100" rx="10" fill="#528BFF"/>
    <rect id="pressed" x="60" y="0" width="20" height="100" rx="10" fill="#61AFEF"/>
  </g>

  <!-- Tabs -->
  <g id="tab" transform="translate(0,260)">
    <rect id="normal" x="0" y="0" width="100" height="30" rx="2" fill="#282c34"/>
    <rect id="focused" x="110" y="0" width="100" height="30" rx="2" fill="#3B4048"/>
    <rect id="pressed" x="220" y="0" width="100" height="30" rx="2" fill="#528BFF"/>
    <rect id="disabled" x="330" y="0" width="100" height="30" rx="2" fill="#21252B"/>
  </g>

  <!-- Progress Bar -->
  <g id="progress" transform="translate(0,300)">
    <rect id="normal" x="0" y="0" width="200" height="4" rx="2" fill="#282c34"/>
    <rect id="focused" x="0" y="10" width="200" height="4" rx="2" fill="#528BFF"/>
  </g>

  <!-- Checkbox -->
  <g id="checkbox" transform="translate(0,320)">
    <rect id="normal" x="0" y="0" width="20" height="20" rx="3" fill="#2c313a"/>
    <rect id="focused" x="30" y="0" width="20" height="20" rx="3" fill="#3B4048"/>
    <path id="checked" d="M60,0 h20 v20 h-20 v-20 M63,10 l5,5 l8,-8" fill="#528BFF" stroke="#fff" stroke-width="2"/>
    <rect id="disabled" x="90" y="0" width="20" height="20" rx="3" fill="#21252B"/>
  </g>

  <!-- Radio Button -->
  <g id="radio" transform="translate(0,350)">
    <circle id="normal" cx="10" cy="10" r="10" fill="#2c313a"/>
    <circle id="focused" cx="40" cy="10" r="10" fill="#3B4048"/>
    <circle id="checked" cx="70" cy="10" r="10" fill="#528BFF"/>
    <circle id="checkedInner" cx="70" cy="10" r="4" fill="#fff"/>
    <circle id="disabled" cx="100" cy="10" r="10" fill="#21252B"/>
  </g>

  <!-- Combo Box -->
  <g id="combo" transform="translate(0,380)">
    <rect id="normal" x="0" y="0" width="100" height="30" rx="3" fill="#2c313a"/>
    <rect id="focused" x="110" y="0" width="100" height="30" rx="3" fill="#3B4048"/>
    <rect id="pressed" x="220" y="0" width="100" height="30" rx="3" fill="#528BFF"/>
    <rect id="disabled" x="330" y="0" width="100" height="30" rx="3" fill="#21252B"/>
  </g>

  <!-- Toolbar -->
  <g id="toolbar" transform="translate(0,420)">
    <rect id="normal" x="0" y="0" width="200" height="40" fill="#1e2127"/>
    <rect id="focused" x="210" y="0" width="200" height="40" fill="#282c34"/>
  </g>

  <!-- Frame -->
  <g id="frame" transform="translate(0,470)">
    <rect id="normal" x="0" y="0" width="200" height="100" rx="3" fill="none" stroke="#3B4048" stroke-width="1"/>
    <rect id="focused" x="210" y="0" width="200" height="100" rx="3" fill="none" stroke="#528BFF" stroke-width="1"/>
  </g>
</svg>
